{
  "asset": {
    "generator": "Khronos glTF Blender I/O v3.5.30",
    "version": "2.0"
  },
  "scene": 0,
  "scenes": [
    {
      "name": "Scene",
      "nodes": [
        0
      ]
    }
  ],
  "nodes": [
    {
      "mesh": 0,
      "name": "grass_medium_02",
      "translation": [
        1.1127846240997314,
        0,
        0
      ]
    }
  ],
  "materials": [
    {
      "alphaCutoff": 0.5,
      "alphaMode": "MASK",
      "doubleSided": true,
      "name": "grass_medium_02",
      "normalTexture": {
        "index": 0
      },
      "pbrMetallicRoughness": {
        "baseColorTexture": {
          "index": 1
        },
        "metallicFactor": 0,
        "metallicRoughnessTexture": {
          "index": 2
        }
      }
    }
  ],
  "meshes": [
    {
      "name": "Plane.031",
      "primitives": [
        {
          "attributes": {
            "POSITION": 0,
            "TEXCOORD_0": 1,
            "NORMAL": 2
          },
          "indices": 3,
          "material": 0
        }
      ]
    }
  ],
  "textures": [
    {
      "sampler": 0,
      "source": 0
    },
    {
      "sampler": 0,
      "source": 1
    },
    {
      "sampler": 0,
      "source": 2
    }
  ],
  "images": [
    {
      "mimeType": "image/jpeg",
      "name": "grass_medium_02_nor_gl",
      "uri": "textures/grass_medium_02_nor_gl_4k.jpg"
    },
    {
      "mimeType": "image/jpeg",
      "name": "grass_medium_02_diff",
      "uri": "textures/grass_medium_02_diff_4k.jpg"
    },
    {
      "mimeType": "image/jpeg",
      "name": "grass_medium_02_rough",
      "uri": "textures/grass_medium_02_arm_4k.jpg"
    }
  ],
  "accessors": [
    {
      "bufferView": 0,
      "componentType": 5126,
      "count": 7031,
      "max": [
        0.14228084683418274,
        0.3998044431209564,
        0.25784459710121155
      ],
      "min": [
        -1.1683545112609863,
        -0.005509789101779461,
        -0.1754019558429718
      ],
      "type": "VEC3"
    },
    {
      "bufferView": 1,
      "componentType": 5126,
      "count": 7031,
      "type": "VEC2"
    },
    {
      "bufferView": 2,
      "componentType": 5126,
      "count": 7031,
      "type": "VEC3"
    },
    {
      "bufferView": 3,
      "componentType": 5123,
      "count": 23526,
      "type": "SCALAR"
    }
  ],
  "bufferViews": [
    {
      "buffer": 0,
      "byteLength": 84372,
      "byteOffset": 0,
      "target": 34962
    },
    {
      "buffer": 0,
      "byteLength": 56248,
      "byteOffset": 84372,
      "target": 34962
    },
    {
      "buffer": 0,
      "byteLength": 84372,
      "byteOffset": 140620,
      "target": 34962
    },
    {
      "buffer": 0,
      "byteLength": 47052,
      "byteOffset": 224992,
      "target": 34963
    }
  ],
  "samplers": [
    {
      "magFilter": 9729,
      "minFilter": 9987
    }
  ],
  "buffers": [
    {
      "byteLength": 272044,
      "uri": "grass_medium_02.bin"
    }
  ]
}